<svg xmlns="http://www.w3.org/2000/svg"  viewBox="0 0 100 100" width="100px" height="100px"><path fill="#31c4f3" d="M82,69V31c0-7.18-5.82-13-13-13H31c-3.59,0-6.84,1.455-9.193,3.807l56.385,56.385	C80.545,75.84,82,72.59,82,69z"/><path fill="#375ca9" d="M18,69c0,7.18,5.82,13,13,13h38c3.59,0,6.84-1.455,9.193-3.807L21.807,21.807	C19.455,24.16,18,27.41,18,31V69z"/><path fill="#3a83c1" d="M81.22,73.44c-1.31,3.61-4.17,6.47-7.78,7.78L18.78,26.56c1.31-3.61,4.17-6.47,7.78-7.78L81.22,73.44	z"/><path fill="#3070b7" d="M73.44,81.22C72.05,81.72,70.56,82,69,82H58.66L18,41.34V31c0-1.56,0.28-3.05,0.78-4.44L73.44,81.22z"/><path fill="#40a6dd" d="M82,58.66V69c0,1.56-0.28,3.05-0.78,4.44L26.56,18.78C27.95,18.28,29.44,18,31,18h10.34L82,58.66z"/><path fill="#fff" d="M56.697,34.422c0.257-0.154,0.522-0.318,0.8-0.461c0.718-0.369,1.517-0.554,2.328-0.513	c0.585,0.031,1.118,0.195,1.528,0.625c0.389,0.4,0.533,0.892,0.574,1.425c0.01,0.113,0.01,0.225,0.01,0.349v5.31	c0,0.461-0.061,0.522-0.522,0.522h-1.25c-0.082,0-0.164,0-0.246-0.01c-0.122-0.01-0.225-0.113-0.246-0.236	c-0.021-0.113-0.021-0.225-0.021-0.339v-4.748c0.01-0.195-0.01-0.379-0.061-0.564c-0.082-0.318-0.369-0.543-0.697-0.564	c-0.604-0.04-1.21,0.082-1.764,0.339c-0.082,0.021-0.133,0.103-0.122,0.185v5.393c0,0.103,0,0.195-0.021,0.297	c0,0.143-0.113,0.246-0.257,0.246l0,0c-0.154,0.01-0.307,0.01-0.472,0.01h-1.086c-0.379,0-0.461-0.093-0.461-0.472v-4.849	c0-0.175-0.01-0.36-0.051-0.533c-0.072-0.349-0.369-0.595-0.718-0.615c-0.615-0.04-1.24,0.082-1.795,0.349	c-0.082,0.021-0.133,0.113-0.113,0.195v5.466c0,0.379-0.082,0.461-0.461,0.461h-1.374c-0.36,0-0.451-0.103-0.451-0.451v-7.116	c0-0.082,0.01-0.164,0.031-0.246c0.04-0.122,0.164-0.195,0.286-0.195h1.282c0.185,0,0.297,0.113,0.36,0.286	c0.051,0.143,0.082,0.278,0.133,0.431c0.103,0,0.164-0.072,0.236-0.113c0.564-0.349,1.158-0.646,1.825-0.768	c0.513-0.103,1.025-0.103,1.538,0c0.482,0.103,0.913,0.389,1.189,0.8c0.021,0.031,0.04,0.051,0.061,0.072	C56.676,34.401,56.687,34.401,56.697,34.422z M41.348,34.025c-0.072-0.257-0.194-0.349-0.461-0.349h-0.985	c-0.472,0-0.522,0.051-0.522,0.522v6.973c0,0.082,0,0.164,0.01,0.246c0.01,0.134,0.113,0.246,0.246,0.257	c0.072,0.01,0.154,0.01,0.225,0.01h1.334c0.072,0,0.154,0,0.225-0.01c0.133,0,0.236-0.103,0.246-0.236	c0.01-0.093,0.01-0.175,0.01-0.267V36.25c0-0.113,0-0.216,0.143-0.267c0.646-0.215,1.313-0.348,1.999-0.286	c0.143,0.01,0.278,0.021,0.421,0.01c0.184-0.021,0.257-0.093,0.297-0.278c0.021-0.143,0.031-0.278,0.021-0.421	c0-0.349,0.01-0.707-0.01-1.056c-0.019-0.257-0.112-0.339-0.379-0.349c-0.667-0.051-1.334,0.154-1.867,0.564	c-0.206,0.163-0.4,0.337-0.585,0.522c-0.042,0.061-0.103,0.101-0.175,0.122C41.482,34.535,41.421,34.278,41.348,34.025z M45.532,41.136c0,0.082,0,0.164,0.01,0.246c0.01,0.145,0.134,0.257,0.278,0.267c0.051,0.01,0.093,0.01,0.143,0.01h1.425	c0.061,0,0.113,0,0.175-0.01c0.133-0.01,0.236-0.103,0.246-0.236c0.01-0.113,0.021-0.225,0.021-0.339v-6.828	c0-0.093,0-0.175-0.01-0.267c-0.021-0.236-0.093-0.307-0.328-0.307c-0.533-0.01-1.067-0.01-1.6,0	c-0.246,0.01-0.339,0.103-0.349,0.349v3.639C45.542,38.831,45.542,39.999,45.532,41.136z M45.367,31.13	c-0.04,0.739,0.389,1.168,0.974,1.282c0.225,0.04,0.461,0.04,0.686,0c0.534-0.082,0.934-0.513,0.974-1.046	c0.051-0.625-0.236-1.107-0.789-1.292c-0.154-0.051-0.318-0.082-0.482-0.072C45.911,30.002,45.429,30.402,45.367,31.13z M37.64,39.371c-0.195,0.657-0.564,1.252-1.067,1.713c-0.688,0.616-1.507,0.842-2.41,0.749c-0.646-0.061-1.271-0.307-1.785-0.707	c-0.072,0.061-0.04,0.143-0.04,0.215v2.922c0,0.636,0,0.636-0.646,0.636c-0.369,0-0.739-0.01-1.107,0	c-0.236,0.01-0.442-0.031-0.574-0.246C30,41.074,30,37.475,30,33.886c0.164-0.184,0.379-0.215,0.615-0.204	c0.307,0.01,0.625,0,0.933,0c0.276,0,0.379,0.093,0.461,0.349c0.031,0.103,0.051,0.204,0.082,0.307c0,0.01,0.019,0.021,0.04,0.031	c0.082-0.04,0.154-0.093,0.215-0.154c0.924-0.686,1.938-0.933,3.066-0.686c0.983,0.225,1.629,0.871,2.05,1.753	c0.215,0.482,0.36,1.006,0.4,1.538C37.934,37.682,37.914,38.534,37.64,39.371z M35.536,37.006c-0.021-0.36-0.113-0.718-0.267-1.046	c-0.175-0.4-0.543-0.677-0.974-0.739c-0.615-0.122-1.2,0-1.764,0.267c-0.133,0.051-0.215,0.175-0.204,0.318	c0.01,0.615,0,1.231,0,1.846v1.856c-0.01,0.122,0.061,0.236,0.175,0.286c0.461,0.246,0.974,0.36,1.497,0.328	c0.348,0,0.676-0.134,0.943-0.36c0.236-0.216,0.4-0.503,0.472-0.821C35.597,38.318,35.597,37.661,35.536,37.006z M65.393,38.288	c-0.051,0.924,0.513,1.671,1.385,1.846c0.636,0.112,1.292,0.112,1.928-0.021c0.297-0.063,0.583-0.124,0.882-0.195	c0.298-0.072,0.421,0.021,0.421,0.328c0,0.255-0.01,0.512,0,0.758c0.01,0.267-0.113,0.41-0.349,0.503	c-0.389,0.154-0.8,0.257-1.21,0.328c-0.78,0.122-1.57,0.154-2.349-0.021c-1.364-0.286-2.265-1.097-2.625-2.461	c-0.276-1.067-0.318-2.143,0.021-3.199c0.482-1.547,1.537-2.44,3.157-2.625c0.686-0.091,1.383-0.019,2.04,0.195	c1.343,0.48,1.898,1.783,1.538,3.075c-0.143,0.513-0.482,0.882-0.943,1.149c-0.4,0.215-0.831,0.349-1.282,0.41	c-0.77,0.122-1.559,0.112-2.328-0.031C65.587,38.307,65.484,38.298,65.393,38.288z M65.556,36.943c0.4,0.061,0.81,0.093,1.21,0.093	c0.227,0.021,0.452,0,0.667-0.051c0.358-0.073,0.657-0.227,0.779-0.595c0.052-0.173,0.063-0.358,0.031-0.533	c-0.031-0.286-0.204-0.533-0.472-0.646c-0.175-0.072-0.358-0.112-0.543-0.122c-0.657-0.04-1.303,0.215-1.61,0.964	c-0.093,0.225-0.164,0.461-0.195,0.707C65.402,36.924,65.402,36.924,65.556,36.943z"/><path fill="#fff" d="M33.869,55.282c0.066-0.219,0.131-0.43,0.198-0.649c0.506-1.706,1.012-3.399,1.517-5.105l0.066-0.198	c0.055-0.198,0.242-0.319,0.44-0.319h1.673c0.418,0,0.506,0.121,0.363,0.518l-0.66,1.749c-0.737,1.914-1.474,3.839-2.211,5.754	c-0.022,0.066-0.055,0.131-0.078,0.198c-0.078,0.231-0.307,0.385-0.551,0.363c-0.483-0.01-0.968-0.01-1.452,0	c-0.342,0.01-0.539-0.143-0.66-0.451c-0.275-0.727-0.561-1.464-0.836-2.189c-0.66-1.728-1.331-3.454-1.992-5.193	c-0.066-0.131-0.11-0.286-0.143-0.43C29.512,49.11,29.588,49,29.809,49c0.627-0.01,1.255,0,1.87,0c0.264,0,0.385,0.176,0.451,0.407	c0.121,0.418,0.242,0.848,0.375,1.265c0.451,1.529,0.891,3.069,1.343,4.599C33.836,55.282,33.848,55.282,33.869,55.282z M41.66,53.302v-3.851c0-0.342-0.098-0.44-0.44-0.44h-1.585c-0.342,0-0.43,0.098-0.44,0.44v7.613c0,0.066,0,0.143,0.01,0.209	c0.022,0.209,0.122,0.319,0.342,0.319c0.594,0.01,1.177,0.01,1.771,0c0.221-0.01,0.319-0.11,0.342-0.33V53.302L41.66,53.302z M40.206,45.073c-0.649,0.055-1.122,0.506-1.177,1.112c-0.066,0.758,0.286,1.286,0.968,1.452c0.121,0.021,0.242,0.043,0.363,0.043	c0.891,0.022,1.562-0.483,1.474-1.485c-0.021-0.463-0.318-0.858-0.748-1.024c-0.209-0.088-0.43-0.133-0.649-0.11	C40.362,45.05,40.284,45.061,40.206,45.073z M70.462,53.582c0,0.209-0.055,0.665-0.055,0.665c-0.154,1.517-1.112,3.268-3.421,3.542	c-0.692,0.098-1.397,0.055-2.068-0.11c-1.265-0.318-2.146-1.089-2.586-2.31c-0.506-1.341-0.516-2.816-0.01-4.159	c0.516-1.409,1.585-2.201,3.069-2.42c0.704-0.109,1.407-0.088,2.101,0.078c1.485,0.373,2.398,1.331,2.805,2.783	c0.055,0.198,0.098,0.407,0.121,0.616c0,0.01,0.043,0.27,0.033,0.395L70.462,53.582z M67.966,53.299c0.012-0.198,0-0.395-0.01-0.594	c-0.022-0.428-0.133-0.858-0.319-1.243c-0.198-0.406-0.561-0.692-1.001-0.78c-0.209-0.045-0.418-0.045-0.627-0.022	c-0.463,0.033-0.88,0.286-1.122,0.682c-0.131,0.221-0.242,0.473-0.297,0.727c-0.154,0.639-0.143,1.288-0.088,1.937	c0.033,0.375,0.131,0.748,0.297,1.089c0.187,0.43,0.571,0.737,1.034,0.825c0.209,0.045,0.418,0.045,0.627,0.022	c0.418-0.033,0.803-0.252,1.044-0.594c0.142-0.198,0.242-0.407,0.307-0.639C67.942,54.258,67.997,53.785,67.966,53.299z M51.593,45.556v11.595c-0.012,0.319-0.1,0.418-0.407,0.418c-0.386,0.01-0.771,0-1.167,0h-0.264c-0.187,0-0.342-0.121-0.385-0.297	c-0.022-0.131-0.066-0.264-0.121-0.385c-0.098,0.022-0.142,0.1-0.219,0.143c-1.022,0.758-2.144,0.946-3.344,0.571	c-0.88-0.264-1.486-0.88-1.904-1.683c-0.364-0.725-0.551-1.528-0.551-2.343c-0.022-0.868,0.055-1.726,0.385-2.541	c0.34-0.846,0.868-1.562,1.716-1.958c1.212-0.561,2.41-0.44,3.554,0.231c0.078,0.043,0.133,0.11,0.231,0.121	c0.055-0.078,0.022-0.154,0.022-0.231v-3.565c0-0.418,0.078-0.495,0.495-0.495h1.529C51.494,45.138,51.582,45.214,51.593,45.556z M49.152,53.235c0-0.67-0.012-1.331,0.009-2.014c0.01-0.143-0.067-0.276-0.198-0.319c-0.527-0.242-1.11-0.352-1.694-0.297	c-0.483,0.033-0.924,0.307-1.155,0.737c-0.098,0.176-0.164,0.352-0.219,0.539c-0.164,0.671-0.219,1.374-0.131,2.068	c0.033,0.385,0.131,0.759,0.307,1.112c0.231,0.452,0.671,0.759,1.177,0.815c0.595,0.088,1.2-0.033,1.728-0.33	c0.121-0.054,0.198-0.176,0.176-0.307L49.152,53.235L49.152,53.235z M55.607,53.975c-0.043-0.022-0.098-0.022-0.154-0.022	c0.022,0.231,0.066,0.452,0.121,0.671c0.197,0.749,0.704,1.177,1.452,1.321c0.749,0.131,1.519,0.098,2.256-0.078	c0.242-0.055,0.473-0.11,0.715-0.176c0.319-0.078,0.452,0.033,0.463,0.352v0.792c0,0.34-0.076,0.451-0.395,0.571	c-0.759,0.285-1.562,0.44-2.365,0.451c-0.551,0.021-1.112-0.034-1.65-0.166c-1.253-0.342-2.134-1.1-2.519-2.355	c-0.373-1.221-0.428-2.465-0.043-3.686c0.573-1.849,1.98-2.784,3.829-2.828c0.551-0.022,1.112,0.043,1.64,0.209	c0.946,0.319,1.573,0.934,1.804,1.925c0.088,0.395,0.088,0.815,0.01,1.21c-0.121,0.639-0.528,1.177-1.112,1.464	c-0.573,0.307-1.21,0.43-1.849,0.473C57.072,54.16,56.335,54.105,55.607,53.975z M55.51,52.344c-0.021,0.1,0.022,0.143,0.121,0.154	c0.44,0.067,0.88,0.1,1.331,0.11c0.231,0.01,0.463-0.012,0.682-0.055c0.407-0.076,0.77-0.242,0.88-0.682	c0.142-0.594-0.045-1.21-0.815-1.331c-0.055,0-0.098-0.022-0.154-0.022c-0.637-0.067-1.198,0.088-1.606,0.627	C55.686,51.496,55.587,51.914,55.51,52.344L55.51,52.344z"/><path fill="#fff" d="M50.623,70c-0.385-0.01-0.771-0.01-1.156,0c-0.53-0.029-1.059-0.048-1.59-0.087	c-1.407-0.106-2.804-0.319-4.172-0.636c-4.731-1.098-8.884-3.305-12.508-6.513c-0.338-0.299-0.655-0.607-0.984-0.916	c-0.077-0.068-0.145-0.164-0.184-0.261c-0.058-0.135-0.029-0.28,0.068-0.385s0.251-0.145,0.385-0.087	c0.087,0.039,0.174,0.077,0.251,0.126c3.459,2.139,7.236,3.701,11.197,4.625c1.33,0.309,2.669,0.549,4.018,0.723	c1.937,0.241,3.892,0.328,5.839,0.261c1.05-0.029,2.091-0.126,3.131-0.261c2.428-0.309,4.828-0.858,7.151-1.629	c1.223-0.404,2.418-0.868,3.585-1.407c0.174-0.097,0.385-0.126,0.578-0.077c0.319,0.077,0.51,0.404,0.433,0.723	c-0.01,0.039-0.029,0.087-0.048,0.126c-0.077,0.145-0.184,0.27-0.319,0.365c-1.108,0.868-2.304,1.629-3.566,2.265	c-2.381,1.204-4.924,2.062-7.545,2.553C53.679,69.778,52.156,69.942,50.623,70z M65.193,60.826	c-0.848,0.203-1.648,0.512-2.362,1.022c-0.116,0.068-0.212,0.164-0.29,0.27c-0.068,0.114-0.097,0.23-0.029,0.346	s0.184,0.126,0.309,0.116l1.165-0.145c0.877-0.116,1.763-0.155,2.65-0.116c0.319,0.019,0.626,0.077,0.926,0.174	c0.317,0.097,0.53,0.375,0.539,0.703c0.019,0.193,0.01,0.385-0.01,0.578c-0.068,0.531-0.174,1.051-0.328,1.561	c-0.261,0.935-0.588,1.83-0.926,2.737c-0.039,0.097-0.058,0.193-0.068,0.29c0.01,0.184,0.126,0.28,0.309,0.232	c0.116-0.039,0.222-0.106,0.309-0.193c0.433-0.404,0.808-0.868,1.117-1.378c0.848-1.417,1.359-3.005,1.484-4.654	c0.019-0.28,0.01-0.559-0.029-0.829c-0.029-0.23-0.172-0.443-0.394-0.53c-0.163-0.077-0.327-0.135-0.501-0.184	c-0.617-0.164-1.243-0.203-1.879-0.222C66.513,60.625,65.848,60.691,65.193,60.826z"/><path fill="#1f212b" d="M69,83H31c-7.72,0-14-6.28-14-14V31c0-7.72,6.28-14,14-14h38c7.72,0,14,6.28,14,14v38	C83,76.72,76.72,83,69,83z M31,19c-6.617,0-12,5.383-12,12v38c0,6.617,5.383,12,12,12h38c6.617,0,12-5.383,12-12V31	c0-6.617-5.383-12-12-12H31z"/><path fill="#1f212b" d="M67.5,78h-35C26.71,78,22,73.29,22,67.5v-35C22,26.71,26.71,22,32.5,22h34c0.276,0,0.5,0.224,0.5,0.5	S66.776,23,66.5,23h-34c-5.238,0-9.5,4.262-9.5,9.5v35c0,5.238,4.262,9.5,9.5,9.5h35c5.238,0,9.5-4.262,9.5-9.5v-19	c0-0.276,0.224-0.5,0.5-0.5s0.5,0.224,0.5,0.5v19C78,73.29,73.29,78,67.5,78z"/><path fill="#1f212b" d="M77.5,46c-0.276,0-0.5-0.224-0.5-0.5v-4c0-0.276,0.224-0.5,0.5-0.5s0.5,0.224,0.5,0.5v4	C78,45.776,77.776,46,77.5,46z"/><path fill="#1f212b" d="M77.5,40c-0.276,0-0.5-0.224-0.5-0.5v-2c0-0.276,0.224-0.5,0.5-0.5s0.5,0.224,0.5,0.5v2	C78,39.776,77.776,40,77.5,40z"/></svg>