<svg xmlns="http://www.w3.org/2000/svg"  viewBox="0 0 100 100" width="100px" height="100px"><path fill="#75849d" d="M69.994,81.816h-39c-6.6,0-12-5.4-12-12v-39c0-6.6,5.4-12,12-12h39c6.6,0,12,5.4,12,12v39 C81.994,76.416,76.594,81.816,69.994,81.816z"/><path fill="#1f212b" d="M69.994,82.816h-39c-7.18,0-13-5.82-13-13v-39c0-7.18,5.82-13,13-13h39c7.18,0,13,5.82,13,13v39 C82.994,76.996,77.173,82.816,69.994,82.816z M19.994,30.816v39c0,6.075,4.925,11,11,11h39c6.075,0,11-4.925,11-11v-39 c0-6.075-4.925-11-11-11h-39C24.918,19.816,19.994,24.741,19.994,30.816z"/><path fill="#1f212b" d="M67.156,77.816H33.831c-5.985,0-10.837-4.852-10.837-10.837V33.653 c0-5.985,4.852-10.837,10.837-10.837h33.663c0.276,0,0.5,0.224,0.5,0.5s-0.224,0.5-0.5,0.5H33.831 c-5.433,0-9.837,4.404-9.837,9.837v33.325c0,5.433,4.405,9.838,9.838,9.838h33.325c5.433,0,9.837-4.404,9.837-9.837V48.316 c0-0.276,0.224-0.5,0.5-0.5s0.5,0.224,0.5,0.5v18.662C77.994,72.964,73.141,77.816,67.156,77.816z M77.494,45.395 c-0.276,0-0.5-0.224-0.5-0.5v-4c0-0.276,0.224-0.5,0.5-0.5s0.5,0.224,0.5,0.5v4C77.994,45.172,77.77,45.395,77.494,45.395z M77.494,39.395c-0.276,0-0.5-0.224-0.5-0.5v-2c0-0.276,0.224-0.5,0.5-0.5s0.5,0.224,0.5,0.5v2 C77.994,39.172,77.77,39.395,77.494,39.395z"/><g><polygon fill="#f05b6c" points="38.5,29.316 47.5,29.316 47.5,70.816 38.5,72.344"/><polygon fill="#f05b6c" points="54.5,71.316 54.5,29.316 63.5,29.316 63.5,72.344"/><polygon fill="none" stroke="#1f212b" stroke-linecap="round" stroke-linejoin="round" stroke-miterlimit="10" points="38.5,29.316 47.5,29.316 47.337,71.153 38.5,72.344"/><polygon fill="none" stroke="#1f212b" stroke-linecap="round" stroke-linejoin="round" stroke-miterlimit="10" points="54.663,71.153 54.5,29.316 63.5,29.316 63.5,72.344"/><polygon fill="#f05b6c" points="54.938,71.583 38.763,29.316 47.073,29.316 63.212,72.318"/><polygon fill="none" stroke="#1f212b" stroke-linecap="round" stroke-linejoin="round" stroke-miterlimit="10" points="54.585,71.23 38.763,29.316 47.5,29.316 63.212,72.318"/></g></svg>